<svg width="198" height="46" viewBox="0 0 198 46" fill="none" xmlns="http://www.w3.org/2000/svg">
<rect width="198" height="46" rx="23" fill="#1DB954"/>
<path d="M28.832 29.272C26.944 29.272 25.344 28.504 24.688 27.832V25.016C25.552 26.44 27.36 27.192 28.72 27.192C29.936 27.192 30.56 26.68 30.56 25.896C30.56 25.24 30.336 24.856 28.56 24.328L27.664 24.072C25.84 23.544 24.688 22.648 24.688 20.792C24.688 18.984 26.208 17.368 28.944 17.368C30.448 17.368 31.744 17.88 32.384 18.408V20.968C31.856 20.232 30.528 19.448 29.056 19.448C27.664 19.448 27.056 20.072 27.056 20.744C27.056 21.352 27.344 21.656 29.12 22.184L30.016 22.44C31.84 22.968 32.944 23.928 32.944 25.752C32.944 27.736 31.424 29.272 28.832 29.272ZM38.4786 29.272C35.9666 29.272 34.2866 27.448 34.2866 25.032C34.2866 22.568 35.9826 20.744 38.3666 20.744C40.8466 20.744 42.4466 22.632 42.4466 25.016L42.4306 25.592H36.4306C36.5906 26.808 37.3906 27.512 38.5426 27.512C39.4226 27.512 40.0146 27.064 40.2066 26.376H42.3506C41.8866 28.184 40.4306 29.272 38.4786 29.272ZM36.4626 24.104H40.2066C40.1266 23.176 39.3586 22.52 38.3666 22.52C37.4066 22.52 36.6546 23.144 36.4626 24.104ZM47.9742 29.272C45.4622 29.272 43.7822 27.448 43.7822 25.032C43.7822 22.568 45.4782 20.744 47.8622 20.744C50.3422 20.744 51.9422 22.632 51.9422 25.016L51.9262 25.592H45.9262C46.0862 26.808 46.8862 27.512 48.0382 27.512C48.9182 27.512 49.5102 27.064 49.7022 26.376H51.8462C51.3822 28.184 49.9262 29.272 47.9742 29.272ZM45.9582 24.104H49.7022C49.6222 23.176 48.8542 22.52 47.8622 22.52C46.9022 22.52 46.1502 23.144 45.9582 24.104ZM58.4529 29L55.8609 21.032H58.1169L59.8289 26.696L61.3809 21.032H63.6369L65.0929 26.776L66.9009 21.032H69.1089L66.4049 29H63.8929L62.4689 23.432L60.9489 29H58.4529ZM70.5133 29V17.64H72.7213V22.696C73.1533 21.752 74.0173 20.792 75.4253 20.792C77.0733 20.792 77.8093 21.976 77.8093 23.544V29H75.6013V24.2C75.6013 23.288 75.3293 22.744 74.4973 22.744C73.5693 22.744 72.9133 23.768 72.7213 24.68V29H70.5133ZM82.0599 29.208C80.5719 29.208 79.4999 28.216 79.4999 26.792C79.4999 25.24 80.6359 24.088 83.1479 24.088H84.4759V24.008C84.4759 23.24 84.0759 22.664 82.8279 22.664C81.7879 22.664 80.6679 23.208 80.0279 23.832V21.736C80.6359 21.288 81.8679 20.776 83.2119 20.776C85.6279 20.776 86.6359 22.152 86.6359 24.088V28.264C86.6359 28.52 86.6679 28.76 86.7319 29H84.5399V27.672C84.1239 28.52 83.3399 29.208 82.0599 29.208ZM82.6839 27.64C83.5319 27.64 84.1719 26.888 84.4759 26.04V25.464H83.3399C82.1879 25.464 81.6759 25.928 81.6759 26.648C81.6759 27.24 82.0759 27.64 82.6839 27.64ZM91.9568 29.224C90.4368 29.224 89.3808 28.344 89.3808 26.504V22.808H87.9408V21.752L91.5728 18.856H91.5888V21.032H93.4768V22.808H91.5888V26.184C91.5888 27.064 91.9888 27.368 92.6448 27.368C93.1088 27.368 93.4928 27.192 93.7648 26.968L93.4128 28.776C93.1728 29 92.6288 29.224 91.9568 29.224ZM95.2479 21.48C95.9679 21.416 96.4959 20.952 96.4959 20.152V19.96H95.2479V17.64H97.7759V19.72C97.7759 21.448 96.8639 22.6 95.2479 22.632V21.48ZM102.001 29.24C100.593 29.24 99.4887 28.76 98.8807 28.216V26.008C99.5367 26.808 100.705 27.416 101.969 27.416C102.753 27.416 103.153 27.16 103.153 26.728C103.153 26.408 103.009 26.152 101.761 25.848L101.105 25.688C99.8247 25.4 98.8167 24.712 98.8167 23.368C98.8167 22.04 100.033 20.776 102.033 20.776C103.217 20.776 104.241 21.176 104.689 21.512V23.592C104.321 23.144 103.265 22.6 102.161 22.6C101.297 22.6 100.929 22.936 100.929 23.272C100.929 23.624 101.073 23.752 102.385 24.088L103.041 24.248C104.353 24.568 105.201 25.32 105.201 26.632C105.201 27.928 104.097 29.24 102.001 29.24ZM113.638 29.224C111.142 29.224 109.43 27.4 109.43 25.016C109.43 22.616 111.142 20.792 113.638 20.792C114.614 20.792 115.318 21.08 115.75 21.416V23.64C115.51 23.304 114.806 22.728 113.75 22.728C112.438 22.728 111.654 23.672 111.654 25.016C111.654 26.344 112.438 27.304 113.75 27.304C114.63 27.304 115.35 26.968 115.75 26.472V28.616C115.318 28.92 114.646 29.224 113.638 29.224ZM117.608 29V17.64H119.816V22.696C120.248 21.752 121.112 20.792 122.52 20.792C124.168 20.792 124.904 21.976 124.904 23.544V29H122.696V24.2C122.696 23.288 122.424 22.744 121.592 22.744C120.664 22.744 120.008 23.768 119.816 24.68V29H117.608ZM129.154 29.208C127.666 29.208 126.594 28.216 126.594 26.792C126.594 25.24 127.73 24.088 130.242 24.088H131.57V24.008C131.57 23.24 131.17 22.664 129.922 22.664C128.882 22.664 127.762 23.208 127.122 23.832V21.736C127.73 21.288 128.962 20.776 130.306 20.776C132.722 20.776 133.73 22.152 133.73 24.088V28.264C133.73 28.52 133.762 28.76 133.826 29H131.634V27.672C131.218 28.52 130.434 29.208 129.154 29.208ZM129.778 27.64C130.626 27.64 131.266 26.888 131.57 26.04V25.464H130.434C129.282 25.464 128.77 25.928 128.77 26.648C128.77 27.24 129.17 27.64 129.778 27.64ZM135.802 29V21.032H138.01V22.696C138.442 21.752 139.306 20.792 140.714 20.792C142.362 20.792 143.098 21.976 143.098 23.544V29H140.89V24.2C140.89 23.288 140.618 22.744 139.786 22.744C138.858 22.744 138.202 23.768 138.01 24.68V29H135.802ZM149.141 32.376C146.885 32.376 145.349 31.208 145.141 29.688H147.429C147.525 30.264 148.133 30.648 149.077 30.648C150.197 30.648 150.949 30.056 150.949 28.424V27.128C150.437 28.12 149.589 28.92 148.181 28.92C146.197 28.92 144.789 27.288 144.789 24.888C144.789 22.456 146.213 20.792 148.181 20.792C149.557 20.792 150.405 21.576 150.949 22.584V21.032H153.141V28.184C153.141 30.92 151.621 32.376 149.141 32.376ZM148.741 27.048C149.829 27.048 150.629 26.072 151.013 24.872C150.629 23.608 149.829 22.68 148.741 22.68C147.717 22.68 147.013 23.48 147.013 24.888C147.013 26.28 147.717 27.048 148.741 27.048ZM159.022 29.272C156.51 29.272 154.83 27.448 154.83 25.032C154.83 22.568 156.526 20.744 158.91 20.744C161.39 20.744 162.99 22.632 162.99 25.016L162.974 25.592H156.974C157.134 26.808 157.934 27.512 159.086 27.512C159.966 27.512 160.558 27.064 160.75 26.376H162.894C162.43 28.184 160.974 29.272 159.022 29.272ZM157.006 24.104H160.75C160.67 23.176 159.902 22.52 158.91 22.52C157.95 22.52 157.198 23.144 157.006 24.104ZM167.766 29.224C165.75 29.224 164.358 27.464 164.358 25.016C164.358 22.568 165.766 20.792 167.782 20.792C169.238 20.792 170.086 21.688 170.566 22.616V17.64H172.758V29H170.566V27.416C170.07 28.344 169.238 29.224 167.766 29.224ZM168.342 27.32C169.462 27.32 170.262 26.264 170.614 25C170.262 23.736 169.462 22.68 168.342 22.68C167.286 22.68 166.582 23.608 166.582 25.016C166.582 26.424 167.286 27.32 168.342 27.32Z" fill="white"/>
</svg>
